<svg width="12" height="12" viewBox="0 0 12 12" fill="none" xmlns="http://www.w3.org/2000/svg">
<path d="M5.35372 8.64615C5.40021 8.69259 5.43709 8.74774 5.46225 8.80843C5.48742 8.86913 5.50037 8.9342 5.50037 8.9999C5.50037 9.06561 5.48742 9.13068 5.46225 9.19137C5.43709 9.25207 5.40021 9.30722 5.35372 9.35365L3.35372 11.3537C3.30729 11.4001 3.25214 11.437 3.19144 11.4622C3.13074 11.4873 3.06568 11.5003 2.99997 11.5003C2.93427 11.5003 2.8692 11.4873 2.8085 11.4622C2.7478 11.437 2.69266 11.4001 2.64622 11.3537L0.646223 9.35365C0.599768 9.3072 0.562918 9.25205 0.537776 9.19135C0.512635 9.13066 0.499695 9.0656 0.499695 8.9999C0.499695 8.93421 0.512635 8.86915 0.537776 8.80846C0.562918 8.74776 0.599768 8.69261 0.646223 8.64615C0.740043 8.55233 0.867291 8.49963 0.999973 8.49963C1.06567 8.49963 1.13072 8.51257 1.19142 8.53771C1.25212 8.56285 1.30727 8.5997 1.35372 8.64615L2.49997 9.79303V0.999905C2.49997 0.867297 2.55265 0.74012 2.64642 0.646352C2.74019 0.552584 2.86736 0.499905 2.99997 0.499905C3.13258 0.499905 3.25976 0.552584 3.35353 0.646352C3.44729 0.74012 3.49997 0.867297 3.49997 0.999905V9.79303L4.64622 8.64615C4.69266 8.59967 4.7478 8.56279 4.8085 8.53762C4.8692 8.51246 4.93427 8.49951 4.99997 8.49951C5.06568 8.49951 5.13074 8.51246 5.19144 8.53762C5.25214 8.56279 5.30729 8.59967 5.35372 8.64615ZM11.3537 2.64615L9.35372 0.646155C9.30729 0.599667 9.25214 0.562787 9.19144 0.537625C9.13074 0.512463 9.06568 0.499512 8.99997 0.499512C8.93427 0.499512 8.8692 0.512463 8.8085 0.537625C8.7478 0.562787 8.69266 0.599667 8.64622 0.646155L6.64622 2.64615C6.5524 2.73997 6.49969 2.86722 6.49969 2.9999C6.4997 3.13259 6.5524 3.25983 6.64622 3.35366C6.74004 3.44748 6.86729 3.50018 6.99997 3.50018C7.13266 3.50018 7.2599 3.44748 7.35372 3.35366L8.49997 2.20678V10.9999C8.49997 11.1325 8.55265 11.2597 8.64642 11.3535C8.74019 11.4472 8.86737 11.4999 8.99997 11.4999C9.13258 11.4999 9.25976 11.4472 9.35353 11.3535C9.4473 11.2597 9.49997 11.1325 9.49997 10.9999V2.20678L10.6462 3.35366C10.74 3.44748 10.8673 3.50018 11 3.50018C11.1327 3.50018 11.2599 3.44748 11.3537 3.35366C11.4475 3.25983 11.5003 3.13259 11.5003 2.9999C11.5003 2.86722 11.4475 2.73997 11.3537 2.64615Z" fill="white"/>
</svg>
