<svg width="24" height="24" viewBox="0 0 24 24" fill="none" xmlns="http://www.w3.org/2000/svg">
<path fill-rule="evenodd" clip-rule="evenodd" d="M16.1321 10.254C16.7797 8.57433 15.2071 6.89466 13.6346 7.58629L10.7082 8.87342C9.96683 9.19947 9.37813 9.82828 9.07288 10.6201L7.86785 13.746C7.22035 15.4257 8.79285 17.1053 10.3654 16.4137L13.2918 15.1266C14.0332 14.8005 14.6219 14.1717 14.9271 13.3799L16.1321 10.254ZM14.259 9.20596C14.4837 9.10716 14.7083 9.34711 14.6158 9.58706L13.4108 12.713C13.272 13.0729 13.0044 13.3587 12.6675 13.5069L9.74099 14.794C9.51635 14.8928 9.2917 14.6529 9.3842 14.4129L10.5892 11.287C10.728 10.9271 10.9956 10.6413 11.3325 10.4931L14.259 9.20596Z" stroke="white" stroke-opacity="0.5" />
<path fill-rule="evenodd" clip-rule="evenodd" d="M15.3527 0.0839377C14.4731 -1.28765e-05 13.3983 -7.10073e-06 12.0385 1.37941e-07H11.9615C10.6017 -7.23993e-06 9.52688 -1.31549e-05 8.64728 0.0839375C7.74376 0.170171 6.98805 0.348883 6.27382 0.740248C6.08881 0.841626 5.90862 0.952748 5.73391 1.0732C5.05949 1.53821 4.53674 2.14791 4.01506 2.94059C3.5072 3.71227 2.96979 4.70652 2.2899 5.96438L2.2514 6.03561C1.57149 7.29347 1.03408 8.28772 0.662342 9.14335C0.280499 10.0223 0.0475387 10.8107 0.00773334 11.667C-0.00257777 11.8889 -0.00257777 12.1111 0.00773328 12.333C0.0475386 13.1893 0.280499 13.9777 0.662342 14.8566C1.03407 15.7123 1.57148 16.7065 2.25138 17.9644L2.28988 18.0356C2.96977 19.2934 3.50719 20.2877 4.01506 21.0594C4.53674 21.8521 5.05949 22.4618 5.73391 22.9268C5.90861 23.0473 6.0888 23.1584 6.27382 23.2598C6.98805 23.6511 7.74376 23.8298 8.64728 23.9161C9.52687 24 10.6017 24 11.9614 24H12.0385C13.3983 24 14.4731 24 15.3527 23.9161C16.2562 23.8298 17.0119 23.6511 17.7262 23.2598C17.9112 23.1584 18.0914 23.0473 18.2661 22.9268C18.9405 22.4618 19.4633 21.8521 19.9849 21.0594C20.4928 20.2877 21.0302 19.2935 21.7101 18.0357L21.7486 17.9644C22.4285 16.7065 22.9659 15.7123 23.3377 14.8567C23.7195 13.9777 23.9525 13.1893 23.9923 12.333C24.0026 12.1111 24.0026 11.8889 23.9923 11.667C23.9525 10.8107 23.7195 10.0223 23.3377 9.14335C22.9659 8.28771 22.4285 7.29346 21.7486 6.03559L21.7101 5.96431C21.0302 4.70649 20.4928 3.71225 19.9849 2.94059C19.4633 2.14791 18.9405 1.53821 18.2661 1.0732C18.0914 0.952749 17.9112 0.841627 17.7262 0.740248C17.0119 0.348884 16.2562 0.170172 15.3527 0.0839377ZM7.02232 2.29875C7.48282 2.04642 8.01067 1.90328 8.79323 1.82859C9.59143 1.75241 10.5932 1.75161 12 1.75161C13.4068 1.75161 14.4086 1.75241 15.2068 1.82859C15.9893 1.90328 16.5172 2.04642 16.9777 2.29875C17.1144 2.37368 17.2476 2.45581 17.3767 2.54484C17.8116 2.84465 18.1915 3.26137 18.6434 3.94792C19.1042 4.64819 19.6058 5.57449 20.3092 6.8758C21.0126 8.17712 21.5128 9.10422 21.8502 9.88067C22.1809 10.6419 22.3288 11.2018 22.3544 11.7539C22.362 11.9179 22.362 12.0821 22.3544 12.2461C22.3288 12.7982 22.1809 13.3581 21.8502 14.1193C21.5128 14.8958 21.0126 15.8229 20.3092 17.1242C19.6058 18.4255 19.1042 19.3518 18.6434 20.0521C18.1915 20.7386 17.8116 21.1553 17.3767 21.4552C17.2476 21.5442 17.1144 21.6263 16.9777 21.7013C16.5172 21.9536 15.9893 22.0967 15.2068 22.1714C14.4086 22.2476 13.4068 22.2484 12 22.2484C10.5932 22.2484 9.59143 22.2476 8.79323 22.1714C8.01067 22.0967 7.48282 21.9536 7.02232 21.7013C6.88557 21.6263 6.75239 21.5442 6.62326 21.4552C6.18843 21.1553 5.80845 20.7386 5.35662 20.0521C4.89575 19.3518 4.3942 18.4255 3.69081 17.1242C2.98743 15.8229 2.48718 14.8958 2.14985 14.1193C1.81912 13.3581 1.67125 12.7982 1.64558 12.2461C1.63796 12.0821 1.63796 11.9179 1.64558 11.7539C1.67125 11.2018 1.81912 10.6419 2.14985 9.88067C2.48718 9.10422 2.98743 8.17712 3.69081 6.8758C4.3942 5.57449 4.89575 4.64819 5.35662 3.94792C5.80845 3.26137 6.18843 2.84465 6.62326 2.54484C6.75239 2.45581 6.88557 2.37368 7.02232 2.29875Z" stroke="white" stroke-opacity="0.5" />
</svg>
