<svg width="19" height="19" viewBox="0 0 19 19" fill="none" xmlns="http://www.w3.org/2000/svg">
<path d="M5.88795 18.4213L13.2261 11.0824L16.4803 11.0824C16.9941 11.0824 17.5118 10.9684 17.9947 10.7436L18.3113 10.5766C18.7364 10.3795 19 9.96704 19 9.4992C19 9.03137 18.7364 8.61893 18.3295 8.43054L17.9773 8.24609C17.5118 8.02998 16.9949 7.91599 16.4804 7.91599L13.2261 7.91599L5.88951 0.579451C5.51588 0.205828 5.01955 -6.11105e-07 4.49075 -6.3422e-07L3.56298 -6.74774e-07C3.41812 -6.81106e-07 3.28513 0.0791469 3.21626 0.205828C3.14661 0.332471 3.15136 0.48765 3.23051 0.609544L8.01098 8.06957C6.8133 8.14319 5.81351 8.24293 4.5968 8.36482L3.35003 8.49069L1.51906 5.7193C1.44466 5.60768 1.32117 5.54119 1.18818 5.54119L0.396593 5.54119C0.277073 5.54119 0.163084 5.59581 0.0878694 5.6892C0.0118749 5.78342 -0.0166228 5.90609 0.00950024 6.02246L0.782905 9.49916L0.00949994 12.9759C0.00315419 13.0044 -5.69685e-07 13.0329 -5.7093e-07 13.0614C-5.74841e-07 13.1508 0.0300936 13.2379 0.087089 13.3091C0.163082 13.4025 0.277072 13.4571 0.396593 13.4571L1.18818 13.4571C1.32117 13.4571 1.44544 13.3906 1.51828 13.279L3.34687 10.5076L4.59761 10.6335C5.81273 10.7554 6.81171 10.8551 8.00942 10.9288L3.23055 18.3888C3.1514 18.5115 3.14743 18.6659 3.2163 18.7917C3.28517 18.9192 3.41815 18.9983 3.56302 18.9983L4.49078 18.9983C5.01955 18.9984 5.51588 18.7934 5.88795 18.4213Z" fill="#5C40CC"/>
</svg>
