<svg width="24" height="24" viewBox="0 0 24 24" fill="none" xmlns="http://www.w3.org/2000/svg">
<path d="M12 11.52C11.28 11.52 10.8 12 10.8 12.72C10.8 13.2 11.16 13.56 11.52 13.68L11.16 15.36H12.72L12.36 13.68C12.84 13.56 13.08 13.2 13.08 12.72C13.2 12 12.72 11.52 12 11.52ZM12.12 6.36002C11.28 6.36002 10.44 6.96002 10.44 7.80002V9.60002H13.68V7.80002C13.56 6.96002 12.96 6.36002 12.12 6.36002ZM12 2.40002L3.6 6.00002V9.60002C3.72 14.88 7.08 19.56 12 21.48C16.92 19.56 20.28 14.88 20.4 9.60002V6.00002L12 2.40002ZM16.8 15.6C16.8 16.32 16.32 16.8 15.6 16.8H8.4C7.68 16.8 7.2 16.32 7.2 15.6V10.8C7.2 10.08 7.68 9.60002 8.4 9.60002H8.76V7.80002C8.88 6.12002 10.32 4.80002 12 4.80002C13.68 4.80002 15.12 6.12002 15.24 7.80002V9.60002H15.6C16.32 9.60002 16.8 10.08 16.8 10.8V15.6Z" fill="#5A5D86"/>
</svg>
